<svg width="582" height="37" viewBox="0 0 582 37" fill="none" xmlns="http://www.w3.org/2000/svg">
<g filter="url(#filter0_i_1_2)">
<path d="M31.8352 13.3125H24.3693C24.233 12.3466 23.9545 11.4886 23.5341 10.7386C23.1136 9.97727 22.5739 9.32954 21.9148 8.79545C21.2557 8.26136 20.4943 7.85227 19.6307 7.56818C18.7784 7.28409 17.8523 7.14205 16.8523 7.14205C15.0455 7.14205 13.4716 7.59091 12.1307 8.48864C10.7898 9.375 9.75 10.6705 9.01136 12.375C8.27273 14.0682 7.90341 16.125 7.90341 18.5455C7.90341 21.0341 8.27273 23.125 9.01136 24.8182C9.76136 26.5114 10.8068 27.7898 12.1477 28.6534C13.4886 29.517 15.0398 29.9489 16.8011 29.9489C17.7898 29.9489 18.7045 29.8182 19.5455 29.5568C20.3977 29.2955 21.1534 28.9148 21.8125 28.4148C22.4716 27.9034 23.017 27.2841 23.4489 26.5568C23.892 25.8295 24.1989 25 24.3693 24.0682L31.8352 24.1023C31.642 25.7045 31.1591 27.25 30.3864 28.7386C29.625 30.2159 28.5966 31.5398 27.3011 32.7102C26.017 33.8693 24.483 34.7898 22.6989 35.4716C20.9261 36.142 18.9205 36.4773 16.6818 36.4773C13.5682 36.4773 10.7841 35.7727 8.32955 34.3636C5.88636 32.9545 3.95455 30.9148 2.53409 28.2443C1.125 25.5739 0.420455 22.3409 0.420455 18.5455C0.420455 14.7386 1.13636 11.5 2.56818 8.82955C4 6.15909 5.94318 4.125 8.39773 2.72727C10.8523 1.31818 13.6136 0.613635 16.6818 0.613635C18.7045 0.613635 20.5795 0.897726 22.3068 1.46591C24.0455 2.03409 25.5852 2.86364 26.9261 3.95454C28.267 5.03409 29.358 6.35795 30.1989 7.92614C31.0511 9.49432 31.5966 11.2898 31.8352 13.3125ZM44.4574 36.4943C42.7869 36.4943 41.2983 36.2045 39.9915 35.625C38.6847 35.0341 37.6506 34.1648 36.8892 33.017C36.1392 31.858 35.7642 30.4148 35.7642 28.6875C35.7642 27.233 36.0313 26.0114 36.5653 25.0227C37.0994 24.0341 37.8267 23.2386 38.7472 22.6364C39.6676 22.0341 40.7131 21.5795 41.8835 21.2727C43.0653 20.9659 44.304 20.75 45.5994 20.625C47.1222 20.4659 48.3494 20.3182 49.2812 20.1818C50.2131 20.0341 50.8892 19.8182 51.3097 19.5341C51.7301 19.25 51.9403 18.8295 51.9403 18.2727V18.1705C51.9403 17.0909 51.5994 16.2557 50.9176 15.6648C50.2472 15.0739 49.2926 14.7784 48.054 14.7784C46.7472 14.7784 45.7074 15.0682 44.9347 15.6477C44.1619 16.2159 43.6506 16.9318 43.4006 17.7955L36.6847 17.25C37.0256 15.6591 37.696 14.2841 38.696 13.125C39.696 11.9545 40.9858 11.0568 42.5653 10.4318C44.1563 9.79545 45.9972 9.47727 48.0881 9.47727C49.5426 9.47727 50.9347 9.64773 52.2642 9.98864C53.6051 10.3295 54.7926 10.858 55.8267 11.5739C56.8722 12.2898 57.696 13.2102 58.2983 14.3352C58.9006 15.4489 59.2017 16.7841 59.2017 18.3409V36H52.3153V32.3693H52.1108C51.6903 33.1875 51.1278 33.9091 50.4233 34.5341C49.7188 35.1477 48.8722 35.6307 47.8835 35.983C46.8949 36.3239 45.7528 36.4943 44.4574 36.4943ZM46.5369 31.483C47.6051 31.483 48.5483 31.2727 49.3665 30.8523C50.1847 30.4205 50.8267 29.8409 51.2926 29.1136C51.7585 28.3864 51.9915 27.5625 51.9915 26.642V23.8636C51.7642 24.0114 51.4517 24.1477 51.054 24.2727C50.6676 24.3864 50.2301 24.4943 49.7415 24.5966C49.2528 24.6875 48.7642 24.7727 48.2756 24.8523C47.7869 24.9205 47.3438 24.983 46.946 25.0398C46.0938 25.1648 45.3494 25.3636 44.7131 25.6364C44.0767 25.9091 43.5824 26.2784 43.2301 26.7443C42.8778 27.1989 42.7017 27.767 42.7017 28.4489C42.7017 29.4375 43.0597 30.1932 43.7756 30.7159C44.5028 31.2273 45.4233 31.483 46.5369 31.483ZM72.0966 1.09091V36H64.8352V1.09091H72.0966ZM85.1747 1.09091V36H77.9134V1.09091H85.1747ZM131.436 1.09091V36H125.061L109.874 14.0284H109.618V36H102.237V1.09091H108.714L123.783 23.0455H124.089V1.09091H131.436ZM149.227 36.5114C146.58 36.5114 144.29 35.9489 142.358 34.8239C140.438 33.6875 138.955 32.108 137.909 30.0852C136.864 28.0511 136.341 25.6932 136.341 23.0114C136.341 20.3068 136.864 17.9432 137.909 15.9205C138.955 13.8864 140.438 12.3068 142.358 11.1818C144.29 10.0455 146.58 9.47727 149.227 9.47727C151.875 9.47727 154.159 10.0455 156.08 11.1818C158.011 12.3068 159.5 13.8864 160.545 15.9205C161.591 17.9432 162.114 20.3068 162.114 23.0114C162.114 25.6932 161.591 28.0511 160.545 30.0852C159.5 32.108 158.011 33.6875 156.08 34.8239C154.159 35.9489 151.875 36.5114 149.227 36.5114ZM149.261 30.8864C150.466 30.8864 151.472 30.5455 152.278 29.8636C153.085 29.1705 153.693 28.2273 154.102 27.0341C154.523 25.8409 154.733 24.483 154.733 22.9602C154.733 21.4375 154.523 20.0795 154.102 18.8864C153.693 17.6932 153.085 16.75 152.278 16.0568C151.472 15.3636 150.466 15.017 149.261 15.017C148.045 15.017 147.023 15.3636 146.193 16.0568C145.375 16.75 144.756 17.6932 144.335 18.8864C143.926 20.0795 143.722 21.4375 143.722 22.9602C143.722 24.483 143.926 25.8409 144.335 27.0341C144.756 28.2273 145.375 29.1705 146.193 29.8636C147.023 30.5455 148.045 30.8864 149.261 30.8864ZM171.344 36L164.219 9.81818H171.565L175.622 27.4091H175.861L180.088 9.81818H187.298L191.594 27.3068H191.815L195.804 9.81818H203.134L196.026 36H188.338L183.838 19.5341H183.514L179.014 36H171.344ZM215.683 1.09091L215.018 25.5341H208.78L208.098 1.09091H215.683ZM211.899 36.4432C210.774 36.4432 209.808 36.0455 209.001 35.25C208.195 34.4432 207.797 33.4773 207.808 32.3523C207.797 31.2386 208.195 30.2841 209.001 29.4886C209.808 28.6932 210.774 28.2955 211.899 28.2955C212.979 28.2955 213.928 28.6932 214.746 29.4886C215.564 30.2841 215.979 31.2386 215.99 32.3523C215.979 33.1023 215.78 33.7898 215.393 34.4148C215.018 35.0284 214.524 35.5227 213.911 35.8977C213.297 36.2614 212.626 36.4432 211.899 36.4432ZM247.298 36.767C244.366 36.7557 241.844 36.0341 239.73 34.6023C237.628 33.1705 236.009 31.0966 234.872 28.3807C233.747 25.6648 233.19 22.3977 233.202 18.5795C233.202 14.7727 233.764 11.5284 234.889 8.84659C236.026 6.16477 237.645 4.125 239.747 2.72727C241.861 1.31818 244.378 0.613635 247.298 0.613635C250.219 0.613635 252.73 1.31818 254.832 2.72727C256.946 4.13636 258.571 6.18182 259.707 8.86364C260.844 11.5341 261.406 14.7727 261.395 18.5795C261.395 22.4091 260.827 25.6818 259.69 28.3977C258.565 31.1136 256.952 33.1875 254.849 34.6193C252.747 36.0511 250.23 36.767 247.298 36.767ZM247.298 30.6477C249.298 30.6477 250.895 29.642 252.088 27.6307C253.281 25.6193 253.872 22.6023 253.861 18.5795C253.861 15.9318 253.588 13.7273 253.043 11.9659C252.509 10.2045 251.747 8.88068 250.759 7.99432C249.781 7.10795 248.628 6.66477 247.298 6.66477C245.31 6.66477 243.719 7.65909 242.526 9.64773C241.332 11.6364 240.73 14.6136 240.719 18.5795C240.719 21.2614 240.986 23.5 241.52 25.2955C242.065 27.0795 242.832 28.4205 243.821 29.3182C244.81 30.2045 245.969 30.6477 247.298 30.6477ZM279.408 36.4773C276.999 36.4773 274.851 36.0341 272.964 35.1477C271.089 34.2614 269.601 33.0398 268.499 31.483C267.396 29.9261 266.822 28.142 266.777 26.1307H273.936C274.016 27.483 274.584 28.5795 275.641 29.4205C276.697 30.2614 277.953 30.6818 279.408 30.6818C280.567 30.6818 281.589 30.4261 282.476 29.9148C283.374 29.392 284.072 28.6705 284.572 27.75C285.084 26.8182 285.339 25.75 285.339 24.5455C285.339 23.3182 285.078 22.2386 284.555 21.3068C284.044 20.375 283.334 19.6477 282.425 19.125C281.516 18.6023 280.476 18.3352 279.305 18.3239C278.283 18.3239 277.288 18.5341 276.322 18.9545C275.368 19.375 274.624 19.9489 274.089 20.6761L267.527 19.5L269.18 1.09091H290.521V7.125H275.266L274.362 15.8693H274.567C275.18 15.0057 276.107 14.2898 277.345 13.7216C278.584 13.1534 279.97 12.8693 281.504 12.8693C283.607 12.8693 285.482 13.3636 287.129 14.3523C288.777 15.3409 290.078 16.6989 291.033 18.4261C291.987 20.142 292.459 22.1193 292.447 24.358C292.459 26.7102 291.913 28.8011 290.811 30.6307C289.72 32.4489 288.192 33.8807 286.226 34.9261C284.271 35.9602 281.999 36.4773 279.408 36.4773ZM297.595 36V30.6818L310.021 19.1761C311.078 18.1534 311.964 17.233 312.68 16.4148C313.408 15.5966 313.959 14.7955 314.334 14.0114C314.709 13.2159 314.896 12.358 314.896 11.4375C314.896 10.4148 314.663 9.53409 314.197 8.79545C313.732 8.04545 313.095 7.47159 312.288 7.07386C311.482 6.66477 310.567 6.46023 309.544 6.46023C308.476 6.46023 307.544 6.67614 306.749 7.10795C305.953 7.53977 305.339 8.15909 304.908 8.96591C304.476 9.77273 304.26 10.733 304.26 11.8466H297.254C297.254 9.5625 297.771 7.57955 298.805 5.89773C299.839 4.21591 301.288 2.91477 303.152 1.99432C305.016 1.07386 307.163 0.613635 309.595 0.613635C312.095 0.613635 314.271 1.05682 316.124 1.94318C317.987 2.81818 319.436 4.03409 320.47 5.59091C321.504 7.14773 322.021 8.93182 322.021 10.9432C322.021 12.2614 321.76 13.5625 321.237 14.8466C320.726 16.1307 319.811 17.5568 318.493 19.125C317.175 20.6818 315.317 22.5511 312.919 24.733L307.822 29.7273V29.9659H322.482V36H297.595ZM344.21 15.6648V21.4261H328.29V15.6648H344.21ZM363.352 36.4773C360.727 36.4773 358.392 36.0511 356.347 35.1989C354.313 34.3352 352.716 33.1591 351.557 31.6705C350.398 30.1818 349.818 28.4943 349.818 26.608C349.818 25.1534 350.148 23.8182 350.807 22.6023C351.477 21.375 352.386 20.358 353.534 19.5511C354.682 18.733 355.966 18.2102 357.386 17.983V17.7443C355.523 17.3693 354.011 16.4659 352.852 15.0341C351.693 13.5909 351.114 11.9148 351.114 10.0057C351.114 8.19886 351.642 6.59091 352.699 5.18182C353.756 3.76136 355.205 2.64773 357.045 1.84091C358.898 1.02273 361 0.613635 363.352 0.613635C365.705 0.613635 367.801 1.02273 369.642 1.84091C371.494 2.65909 372.949 3.77841 374.006 5.19886C375.063 6.60795 375.597 8.21023 375.608 10.0057C375.597 11.9261 375.006 13.6023 373.835 15.0341C372.665 16.4659 371.165 17.3693 369.335 17.7443V17.983C370.733 18.2102 372 18.733 373.136 19.5511C374.284 20.358 375.193 21.375 375.864 22.6023C376.545 23.8182 376.892 25.1534 376.903 26.608C376.892 28.4943 376.307 30.1818 375.148 31.6705C373.989 33.1591 372.386 34.3352 370.341 35.1989C368.307 36.0511 365.977 36.4773 363.352 36.4773ZM363.352 31.0568C364.523 31.0568 365.545 30.8466 366.42 30.4261C367.295 29.9943 367.977 29.4034 368.466 28.6534C368.966 27.892 369.216 27.017 369.216 26.0284C369.216 25.017 368.96 24.125 368.449 23.3523C367.938 22.5682 367.244 21.9545 366.369 21.5114C365.494 21.0568 364.489 20.8295 363.352 20.8295C362.227 20.8295 361.222 21.0568 360.335 21.5114C359.449 21.9545 358.75 22.5682 358.239 23.3523C357.739 24.125 357.489 25.017 357.489 26.0284C357.489 27.017 357.733 27.892 358.222 28.6534C358.71 29.4034 359.398 29.9943 360.284 30.4261C361.17 30.8466 362.193 31.0568 363.352 31.0568ZM363.352 15.4602C364.33 15.4602 365.199 15.2614 365.96 14.8636C366.722 14.4659 367.318 13.9148 367.75 13.2102C368.182 12.5057 368.398 11.6932 368.398 10.7727C368.398 9.86364 368.182 9.06818 367.75 8.38636C367.318 7.69318 366.727 7.15341 365.977 6.76705C365.227 6.36932 364.352 6.17045 363.352 6.17045C362.364 6.17045 361.489 6.36932 360.727 6.76705C359.966 7.15341 359.369 7.69318 358.938 8.38636C358.517 9.06818 358.307 9.86364 358.307 10.7727C358.307 11.6932 358.523 12.5057 358.955 13.2102C359.386 13.9148 359.983 14.4659 360.744 14.8636C361.506 15.2614 362.375 15.4602 363.352 15.4602ZM395.087 36.4773C392.462 36.4773 390.126 36.0511 388.081 35.1989C386.047 34.3352 384.45 33.1591 383.291 31.6705C382.132 30.1818 381.553 28.4943 381.553 26.608C381.553 25.1534 381.882 23.8182 382.541 22.6023C383.212 21.375 384.121 20.358 385.268 19.5511C386.416 18.733 387.7 18.2102 389.121 17.983V17.7443C387.257 17.3693 385.746 16.4659 384.587 15.0341C383.428 13.5909 382.848 11.9148 382.848 10.0057C382.848 8.19886 383.376 6.59091 384.433 5.18182C385.49 3.76136 386.939 2.64773 388.78 1.84091C390.632 1.02273 392.734 0.613635 395.087 0.613635C397.439 0.613635 399.536 1.02273 401.376 1.84091C403.229 2.65909 404.683 3.77841 405.74 5.19886C406.797 6.60795 407.331 8.21023 407.342 10.0057C407.331 11.9261 406.74 13.6023 405.57 15.0341C404.399 16.4659 402.899 17.3693 401.07 17.7443V17.983C402.467 18.2102 403.734 18.733 404.871 19.5511C406.018 20.358 406.928 21.375 407.598 22.6023C408.28 23.8182 408.626 25.1534 408.638 26.608C408.626 28.4943 408.041 30.1818 406.882 31.6705C405.723 33.1591 404.121 34.3352 402.075 35.1989C400.041 36.0511 397.712 36.4773 395.087 36.4773ZM395.087 31.0568C396.257 31.0568 397.28 30.8466 398.155 30.4261C399.03 29.9943 399.712 29.4034 400.2 28.6534C400.7 27.892 400.95 27.017 400.95 26.0284C400.95 25.017 400.695 24.125 400.183 23.3523C399.672 22.5682 398.979 21.9545 398.104 21.5114C397.229 21.0568 396.223 20.8295 395.087 20.8295C393.962 20.8295 392.956 21.0568 392.07 21.5114C391.183 21.9545 390.484 22.5682 389.973 23.3523C389.473 24.125 389.223 25.017 389.223 26.0284C389.223 27.017 389.467 27.892 389.956 28.6534C390.445 29.4034 391.132 29.9943 392.018 30.4261C392.905 30.8466 393.928 31.0568 395.087 31.0568ZM395.087 15.4602C396.064 15.4602 396.933 15.2614 397.695 14.8636C398.456 14.4659 399.053 13.9148 399.484 13.2102C399.916 12.5057 400.132 11.6932 400.132 10.7727C400.132 9.86364 399.916 9.06818 399.484 8.38636C399.053 7.69318 398.462 7.15341 397.712 6.76705C396.962 6.36932 396.087 6.17045 395.087 6.17045C394.098 6.17045 393.223 6.36932 392.462 6.76705C391.7 7.15341 391.104 7.69318 390.672 8.38636C390.251 9.06818 390.041 9.86364 390.041 10.7727C390.041 11.6932 390.257 12.5057 390.689 13.2102C391.121 13.9148 391.717 14.4659 392.479 14.8636C393.24 15.2614 394.109 15.4602 395.087 15.4602ZM427.196 36.4773C425.401 36.4659 423.668 36.1648 421.997 35.5739C420.338 34.983 418.849 34.0227 417.531 32.6932C416.213 31.3636 415.168 29.6023 414.395 27.4091C413.634 25.2159 413.253 22.5227 413.253 19.3295C413.264 16.3977 413.599 13.7784 414.259 11.4716C414.929 9.15341 415.884 7.1875 417.122 5.57386C418.372 3.96023 419.866 2.73295 421.605 1.89204C423.344 1.03977 425.293 0.613635 427.452 0.613635C429.781 0.613635 431.838 1.06818 433.622 1.97727C435.406 2.875 436.838 4.09659 437.918 5.64205C439.009 7.1875 439.668 8.92045 439.895 10.8409H432.616C432.332 9.625 431.736 8.67045 430.827 7.97727C429.918 7.28409 428.793 6.9375 427.452 6.9375C425.179 6.9375 423.452 7.92614 422.27 9.90341C421.099 11.8807 420.503 14.5682 420.48 17.9659H420.719C421.241 16.9318 421.946 16.0511 422.832 15.3239C423.73 14.5852 424.747 14.0227 425.884 13.6364C427.031 13.2386 428.241 13.0398 429.514 13.0398C431.582 13.0398 433.423 13.5284 435.037 14.5057C436.651 15.4716 437.923 16.8011 438.855 18.4943C439.787 20.1875 440.253 22.125 440.253 24.3068C440.253 26.6705 439.702 28.7727 438.599 30.6136C437.509 32.4545 435.98 33.8977 434.014 34.9432C432.06 35.9773 429.787 36.4886 427.196 36.4773ZM427.162 30.6818C428.298 30.6818 429.315 30.4091 430.213 29.8636C431.111 29.3182 431.815 28.5795 432.327 27.6477C432.838 26.7159 433.094 25.6705 433.094 24.5114C433.094 23.3523 432.838 22.3125 432.327 21.392C431.827 20.4716 431.134 19.7386 430.247 19.1932C429.361 18.6477 428.349 18.375 427.213 18.375C426.361 18.375 425.571 18.5341 424.844 18.8523C424.128 19.1705 423.497 19.6136 422.952 20.1818C422.418 20.75 421.997 21.4091 421.69 22.1591C421.384 22.8977 421.23 23.6875 421.23 24.5284C421.23 25.6534 421.486 26.6818 421.997 27.6136C422.52 28.5455 423.224 29.2898 424.111 29.8466C425.009 30.4034 426.026 30.6818 427.162 30.6818ZM461.866 15.6648V21.4261H445.946V15.6648H461.866ZM483.173 1.09091V36H475.793V8.09659H475.588L467.594 13.108V6.5625L476.236 1.09091H483.173ZM504.374 36.4773C501.828 36.4773 499.561 36.0398 497.572 35.1648C495.595 34.2784 494.033 33.0625 492.885 31.517C491.749 29.9602 491.163 28.1648 491.129 26.1307H498.561C498.607 26.983 498.885 27.733 499.396 28.3807C499.919 29.017 500.612 29.5114 501.476 29.8636C502.339 30.2159 503.311 30.392 504.391 30.392C505.516 30.392 506.51 30.1932 507.374 29.7955C508.237 29.3977 508.913 28.8466 509.402 28.142C509.891 27.4375 510.135 26.625 510.135 25.7045C510.135 24.7727 509.874 23.9489 509.351 23.233C508.839 22.5057 508.101 21.9375 507.135 21.5284C506.18 21.1193 505.044 20.9148 503.726 20.9148H500.47V15.4943H503.726C504.839 15.4943 505.822 15.3011 506.675 14.9148C507.538 14.5284 508.209 13.9943 508.686 13.3125C509.163 12.6193 509.402 11.8125 509.402 10.892C509.402 10.017 509.192 9.25 508.771 8.59091C508.362 7.92045 507.783 7.39773 507.033 7.02273C506.294 6.64773 505.43 6.46023 504.442 6.46023C503.442 6.46023 502.527 6.64205 501.697 7.00568C500.868 7.35795 500.203 7.86364 499.703 8.52273C499.203 9.18182 498.936 9.95454 498.902 10.8409H491.828C491.862 8.82954 492.436 7.05682 493.55 5.52273C494.663 3.98864 496.163 2.78977 498.05 1.92614C499.947 1.05114 502.089 0.613635 504.476 0.613635C506.885 0.613635 508.993 1.05114 510.8 1.92614C512.607 2.80114 514.01 3.98295 515.01 5.47159C516.021 6.94886 516.521 8.60795 516.51 10.4489C516.521 12.4034 515.913 14.0341 514.686 15.3409C513.47 16.6477 511.885 17.4773 509.93 17.8295V18.1023C512.499 18.4318 514.453 19.3239 515.794 20.7784C517.146 22.2216 517.817 24.0284 517.805 26.1989C517.817 28.1875 517.243 29.9545 516.084 31.5C514.936 33.0455 513.351 34.2614 511.328 35.1477C509.305 36.0341 506.987 36.4773 504.374 36.4773ZM536.014 36.4773C533.469 36.4773 531.202 36.0398 529.213 35.1648C527.236 34.2784 525.673 33.0625 524.526 31.517C523.389 29.9602 522.804 28.1648 522.77 26.1307H530.202C530.247 26.983 530.526 27.733 531.037 28.3807C531.56 29.017 532.253 29.5114 533.116 29.8636C533.98 30.2159 534.952 30.392 536.031 30.392C537.156 30.392 538.151 30.1932 539.014 29.7955C539.878 29.3977 540.554 28.8466 541.043 28.142C541.531 27.4375 541.776 26.625 541.776 25.7045C541.776 24.7727 541.514 23.9489 540.991 23.233C540.48 22.5057 539.741 21.9375 538.776 21.5284C537.821 21.1193 536.685 20.9148 535.366 20.9148H532.111V15.4943H535.366C536.48 15.4943 537.463 15.3011 538.315 14.9148C539.179 14.5284 539.849 13.9943 540.327 13.3125C540.804 12.6193 541.043 11.8125 541.043 10.892C541.043 10.017 540.832 9.25 540.412 8.59091C540.003 7.92045 539.423 7.39773 538.673 7.02273C537.935 6.64773 537.071 6.46023 536.082 6.46023C535.082 6.46023 534.168 6.64205 533.338 7.00568C532.509 7.35795 531.844 7.86364 531.344 8.52273C530.844 9.18182 530.577 9.95454 530.543 10.8409H523.469C523.503 8.82954 524.077 7.05682 525.19 5.52273C526.304 3.98864 527.804 2.78977 529.69 1.92614C531.588 1.05114 533.73 0.613635 536.116 0.613635C538.526 0.613635 540.634 1.05114 542.44 1.92614C544.247 2.80114 545.651 3.98295 546.651 5.47159C547.662 6.94886 548.162 8.60795 548.151 10.4489C548.162 12.4034 547.554 14.0341 546.327 15.3409C545.111 16.6477 543.526 17.4773 541.571 17.8295V18.1023C544.139 18.4318 546.094 19.3239 547.435 20.7784C548.787 22.2216 549.457 24.0284 549.446 26.1989C549.457 28.1875 548.884 29.9545 547.724 31.5C546.577 33.0455 544.991 34.2614 542.969 35.1477C540.946 36.0341 538.628 36.4773 536.014 36.4773ZM567.655 36.4773C565.109 36.4773 562.842 36.0398 560.854 35.1648C558.876 34.2784 557.314 33.0625 556.166 31.517C555.03 29.9602 554.445 28.1648 554.411 26.1307H561.842C561.888 26.983 562.166 27.733 562.678 28.3807C563.2 29.017 563.893 29.5114 564.757 29.8636C565.621 30.2159 566.592 30.392 567.672 30.392C568.797 30.392 569.791 30.1932 570.655 29.7955C571.518 29.3977 572.195 28.8466 572.683 28.142C573.172 27.4375 573.416 26.625 573.416 25.7045C573.416 24.7727 573.155 23.9489 572.632 23.233C572.121 22.5057 571.382 21.9375 570.416 21.5284C569.462 21.1193 568.325 20.9148 567.007 20.9148H563.751V15.4943H567.007C568.121 15.4943 569.104 15.3011 569.956 14.9148C570.82 14.5284 571.49 13.9943 571.967 13.3125C572.445 12.6193 572.683 11.8125 572.683 10.892C572.683 10.017 572.473 9.25 572.053 8.59091C571.643 7.92045 571.064 7.39773 570.314 7.02273C569.575 6.64773 568.712 6.46023 567.723 6.46023C566.723 6.46023 565.808 6.64205 564.979 7.00568C564.149 7.35795 563.484 7.86364 562.984 8.52273C562.484 9.18182 562.217 9.95454 562.183 10.8409H555.109C555.143 8.82954 555.717 7.05682 556.831 5.52273C557.945 3.98864 559.445 2.78977 561.331 1.92614C563.229 1.05114 565.371 0.613635 567.757 0.613635C570.166 0.613635 572.274 1.05114 574.081 1.92614C575.888 2.80114 577.291 3.98295 578.291 5.47159C579.303 6.94886 579.803 8.60795 579.791 10.4489C579.803 12.4034 579.195 14.0341 577.967 15.3409C576.751 16.6477 575.166 17.4773 573.212 17.8295V18.1023C575.78 18.4318 577.734 19.3239 579.075 20.7784C580.428 22.2216 581.098 24.0284 581.087 26.1989C581.098 28.1875 580.524 29.9545 579.365 31.5C578.217 33.0455 576.632 34.2614 574.609 35.1477C572.587 36.0341 570.268 36.4773 567.655 36.4773Z" fill="#FDFCE9"/>
</g>
<defs>
<filter id="filter0_i_1_2" x="0.420456" y="0.613632" width="580.683" height="40.1534" filterUnits="userSpaceOnUse" color-interpolation-filters="sRGB">
<feFlood flood-opacity="0" result="BackgroundImageFix"/>
<feBlend mode="normal" in="SourceGraphic" in2="BackgroundImageFix" result="shape"/>
<feColorMatrix in="SourceAlpha" type="matrix" values="0 0 0 0 0 0 0 0 0 0 0 0 0 0 0 0 0 0 127 0" result="hardAlpha"/>
<feOffset dy="4"/>
<feGaussianBlur stdDeviation="2"/>
<feComposite in2="hardAlpha" operator="arithmetic" k2="-1" k3="1"/>
<feColorMatrix type="matrix" values="0 0 0 0 0 0 0 0 0 0 0 0 0 0 0 0 0 0 0.25 0"/>
<feBlend mode="normal" in2="shape" result="effect1_innerShadow_1_2"/>
</filter>
</defs>
</svg>
