<svg width="811" height="384" viewBox="0 0 811 384" fill="none" xmlns="http://www.w3.org/2000/svg">
<g filter="url(#filter0_dd_0_1)">
<path d="M738.5 188C738.5 238.484 698.334 284.833 631.933 318.709C565.667 352.516 473.947 373.5 372.5 373.5C271.053 373.5 179.333 352.516 113.067 318.709C46.666 284.833 6.5 238.484 6.5 188C6.5 137.516 46.666 91.1672 113.067 57.2909C179.333 23.4836 271.053 2.5 372.5 2.5C473.947 2.5 565.667 23.4836 631.933 57.2909C698.334 91.1672 738.5 137.516 738.5 188Z" stroke="url(#paint0_linear_0_1)" stroke-width="5" shape-rendering="crispEdges"/>
</g>
<g filter="url(#filter1_dddd_0_1)">
<path d="M138.004 112.455H162.656L178.214 175.977H179.322L215.838 112.455H240.49L224.794 207H205.405L215.653 145.462H214.822L180.291 206.538H167.042L152.823 145.232H152.038L141.697 207H122.308L138.004 112.455ZM291.398 176.808L298.184 136.091H317.851L306.032 207H287.151L289.275 194.12H288.536C286.351 198.275 283.166 201.614 278.98 204.138C274.794 206.661 270.039 207.923 264.715 207.923C259.975 207.923 255.974 206.846 252.712 204.692C249.481 202.537 247.188 199.475 245.834 195.505C244.479 191.535 244.249 186.78 245.141 181.24L252.712 136.091H272.378L265.454 177.732C264.807 181.917 265.392 185.226 267.208 187.657C269.024 190.088 271.794 191.304 275.518 191.304C277.887 191.304 280.18 190.765 282.396 189.688C284.643 188.58 286.582 186.949 288.213 184.795C289.844 182.64 290.906 179.978 291.398 176.808ZM389.118 156.311L371.252 157.419C371.159 155.849 370.729 154.449 369.959 153.218C369.221 151.956 368.128 150.956 366.681 150.217C365.266 149.479 363.481 149.109 361.326 149.109C358.095 149.109 355.217 149.848 352.694 151.325C350.17 152.803 348.739 154.695 348.4 157.004C348.123 158.481 348.508 159.727 349.554 160.743C350.601 161.759 352.709 162.62 355.879 163.328L368.343 165.913C374.991 167.329 379.792 169.683 382.747 172.977C385.732 176.27 386.794 180.578 385.932 185.903C385.163 190.427 383.178 194.382 379.977 197.767C376.776 201.122 372.714 203.738 367.789 205.615C362.865 207.462 357.402 208.385 351.401 208.385C341.768 208.385 334.443 206.415 329.426 202.476C324.41 198.536 321.994 193.197 322.179 186.457L341.383 185.441C341.537 188.334 342.553 190.519 344.43 191.996C346.307 193.443 348.877 194.182 352.14 194.212C355.802 194.274 358.91 193.52 361.465 191.95C364.05 190.35 365.512 188.411 365.85 186.134C366.097 184.533 365.635 183.241 364.466 182.256C363.327 181.271 361.234 180.455 358.187 179.809L346.369 177.362C339.66 175.977 334.843 173.5 331.919 169.93C328.996 166.36 327.995 161.82 328.919 156.311C329.657 151.91 331.489 148.14 334.412 145.001C337.367 141.831 341.168 139.399 345.815 137.707C350.493 136.014 355.771 135.168 361.65 135.168C370.852 135.168 377.776 137.06 382.424 140.846C387.102 144.631 389.333 149.786 389.118 156.311ZM411.427 207H390.006L438.341 112.455H464.101L480.997 207H459.577L448.081 134.06H447.343L411.427 207ZM416.32 169.837H466.917L464.239 185.441H413.643L416.32 169.837ZM492.007 207L503.825 136.091H522.892L520.814 148.463H521.553C523.584 144.062 526.308 140.738 529.724 138.491C533.171 136.214 536.879 135.075 540.85 135.075C541.834 135.075 542.865 135.137 543.943 135.26C545.051 135.352 546.035 135.506 546.897 135.722L543.943 153.218C543.081 152.91 541.85 152.664 540.249 152.479C538.68 152.264 537.187 152.156 535.771 152.156C532.909 152.156 530.247 152.787 527.785 154.049C525.323 155.28 523.245 157.004 521.553 159.219C519.891 161.435 518.798 163.99 518.275 166.883L511.673 207H492.007ZM598.29 136.091L595.843 150.864H553.095L555.588 136.091H598.29ZM568.052 119.102H587.718L576.731 185.21C576.423 187.026 576.47 188.442 576.87 189.457C577.27 190.442 577.931 191.135 578.855 191.535C579.809 191.935 580.948 192.135 582.271 192.135C583.194 192.135 584.133 192.058 585.087 191.904C586.041 191.719 586.764 191.581 587.257 191.489L587.995 206.123C586.887 206.461 585.395 206.831 583.517 207.231C581.671 207.631 579.486 207.877 576.962 207.969C572.161 208.154 568.098 207.523 564.775 206.077C561.451 204.599 559.065 202.337 557.619 199.29C556.172 196.244 555.865 192.412 556.696 187.795L568.052 119.102Z" fill="url(#paint1_linear_0_1)" shape-rendering="crispEdges"/>
</g>
<g filter="url(#filter2_dddd_0_1)">
<path d="M307.536 254.091L299.085 305H294.66L303.112 254.091H307.536ZM310.842 305L317.206 266.818H321.656L315.292 305H310.842ZM321.034 260.181C320.106 260.181 319.319 259.866 318.673 259.237C318.043 258.607 317.736 257.844 317.753 256.95C317.786 256.104 318.126 255.375 318.772 254.762C319.435 254.132 320.214 253.817 321.109 253.817C322.037 253.817 322.824 254.141 323.47 254.787C324.116 255.417 324.423 256.179 324.39 257.074C324.373 257.919 324.034 258.648 323.371 259.261C322.708 259.875 321.929 260.181 321.034 260.181ZM362.914 266.818L342.605 305H337.882L330.3 266.818H334.899L340.865 299.158H341.188L357.917 266.818H362.914ZM379.177 305.795C375.614 305.795 372.672 304.967 370.352 303.31C368.032 301.636 366.408 299.324 365.48 296.374C364.552 293.408 364.411 289.994 365.058 286.133C365.704 282.288 366.98 278.874 368.886 275.891C370.791 272.892 373.145 270.547 375.945 268.857C378.746 267.15 381.787 266.296 385.068 266.296C387.14 266.296 389.079 266.677 390.885 267.44C392.691 268.185 394.224 269.337 395.484 270.895C396.76 272.436 397.646 274.383 398.143 276.737C398.641 279.073 398.624 281.841 398.094 285.039L397.746 287.227H367.916L368.538 283.324H393.868C394.282 280.871 394.166 278.667 393.52 276.712C392.874 274.756 391.772 273.207 390.214 272.063C388.673 270.903 386.759 270.323 384.472 270.323C382.135 270.323 379.923 270.978 377.835 272.287C375.763 273.596 374.006 275.303 372.565 277.408C371.139 279.496 370.22 281.725 369.805 284.094L369.308 287.028C368.778 290.259 368.844 292.969 369.507 295.156C370.17 297.327 371.371 298.968 373.112 300.078C374.852 301.188 377.08 301.744 379.798 301.744C381.621 301.744 383.27 301.462 384.745 300.898C386.22 300.335 387.504 299.581 388.598 298.636C389.692 297.675 390.57 296.623 391.233 295.479L395.185 296.847C394.34 298.454 393.147 299.937 391.606 301.296C390.081 302.655 388.267 303.749 386.162 304.577C384.074 305.389 381.746 305.795 379.177 305.795ZM424.201 305L430.564 266.818H434.865L433.871 272.685H434.268C435.379 270.713 436.92 269.163 438.892 268.036C440.864 266.893 443.101 266.321 445.604 266.321C448.222 266.321 450.277 266.942 451.768 268.185C453.26 269.412 454.254 271.102 454.751 273.256H455.074C456.268 271.135 457.95 269.453 460.121 268.21C462.291 266.951 464.769 266.321 467.553 266.321C471.083 266.321 473.693 267.44 475.383 269.677C477.074 271.914 477.563 275.162 476.85 279.421L472.574 305H468.15L472.425 279.421C472.906 276.405 472.516 274.143 471.257 272.635C469.997 271.127 468.108 270.373 465.589 270.373C462.673 270.373 460.261 271.268 458.356 273.058C456.466 274.831 455.298 277.101 454.851 279.869L450.65 305H446.126L450.476 279.023C450.89 276.438 450.517 274.35 449.357 272.759C448.214 271.168 446.333 270.373 443.714 270.373C441.941 270.373 440.276 270.812 438.718 271.69C437.177 272.552 435.867 273.754 434.79 275.295C433.73 276.819 433.034 278.568 432.702 280.54L428.626 305H424.201ZM510.961 290.408L514.914 266.818H519.338L512.975 305H508.55L509.594 298.661H509.271C508.078 300.617 506.387 302.249 504.2 303.558C502.029 304.851 499.543 305.497 496.743 305.497C494.306 305.497 492.227 304.967 490.503 303.906C488.796 302.829 487.578 301.255 486.849 299.183C486.12 297.112 486.004 294.568 486.501 291.552L490.652 266.818H495.077L491 291.278C490.52 294.261 491 296.664 492.442 298.487C493.9 300.294 496.005 301.197 498.756 301.197C500.48 301.197 502.203 300.782 503.926 299.954C505.667 299.125 507.175 297.915 508.451 296.325C509.743 294.717 510.58 292.745 510.961 290.408ZM555.314 275.195L551.063 276.289C550.848 275.146 550.45 274.118 549.87 273.207C549.307 272.279 548.486 271.549 547.409 271.019C546.349 270.472 544.957 270.199 543.233 270.199C540.648 270.199 538.419 270.829 536.546 272.088C534.674 273.331 533.58 274.922 533.265 276.861C533 278.485 533.34 279.802 534.284 280.813C535.245 281.824 536.853 282.62 539.107 283.2L544.675 284.616C547.757 285.412 549.953 286.655 551.262 288.345C552.588 290.036 553.044 292.173 552.629 294.759C552.265 296.913 551.345 298.819 549.87 300.476C548.412 302.133 546.539 303.434 544.252 304.379C541.982 305.323 539.446 305.795 536.646 305.795C532.884 305.795 529.926 304.95 527.771 303.26C525.634 301.57 524.49 299.134 524.341 295.952L528.791 294.957C528.923 297.211 529.694 298.918 531.102 300.078C532.528 301.238 534.533 301.818 537.118 301.818C540.068 301.818 542.545 301.147 544.551 299.805C546.556 298.462 547.708 296.805 548.006 294.833C548.288 293.275 547.998 291.983 547.136 290.955C546.291 289.928 544.849 289.165 542.811 288.668L536.869 287.177C533.671 286.365 531.409 285.097 530.083 283.374C528.774 281.634 528.335 279.487 528.766 276.935C529.114 274.831 529.992 272.983 531.401 271.392C532.809 269.801 534.591 268.558 536.745 267.663C538.9 266.752 541.253 266.296 543.805 266.296C547.318 266.296 549.994 267.092 551.834 268.683C553.673 270.257 554.834 272.428 555.314 275.195ZM560.627 305L566.991 266.818H571.441L565.077 305H560.627ZM570.819 260.181C569.891 260.181 569.104 259.866 568.458 259.237C567.828 258.607 567.521 257.844 567.538 256.95C567.571 256.104 567.911 255.375 568.557 254.762C569.22 254.132 569.999 253.817 570.894 253.817C571.822 253.817 572.609 254.141 573.255 254.787C573.902 255.417 574.208 256.179 574.175 257.074C574.158 257.919 573.819 258.648 573.156 259.261C572.493 259.875 571.714 260.181 570.819 260.181ZM591.594 305.795C588.147 305.795 585.305 304.942 583.068 303.235C580.831 301.528 579.265 299.192 578.37 296.225C577.492 293.242 577.367 289.862 577.997 286.083C578.627 282.238 579.894 278.833 581.8 275.866C583.706 272.884 586.059 270.547 588.86 268.857C591.677 267.15 594.751 266.296 598.082 266.296C600.651 266.296 602.888 266.793 604.794 267.788C606.7 268.765 608.175 270.149 609.219 271.939C610.263 273.712 610.76 275.784 610.71 278.153H606.236C606.12 275.949 605.316 274.093 603.824 272.585C602.349 271.077 600.261 270.323 597.56 270.323C595.091 270.323 592.804 270.986 590.699 272.312C588.595 273.621 586.813 275.452 585.355 277.805C583.913 280.142 582.944 282.852 582.447 285.934C581.916 289.033 581.966 291.776 582.596 294.162C583.225 296.532 584.352 298.388 585.976 299.73C587.617 301.072 589.689 301.744 592.191 301.744C593.898 301.744 595.505 301.429 597.013 300.799C598.521 300.153 599.855 299.241 601.015 298.065C602.175 296.871 603.062 295.471 603.675 293.864H608.15C607.404 296.184 606.227 298.239 604.62 300.028C603.029 301.818 601.123 303.227 598.903 304.254C596.682 305.282 594.246 305.795 591.594 305.795ZM666.056 275.195L661.806 276.289C661.59 275.146 661.192 274.118 660.612 273.207C660.049 272.279 659.229 271.549 658.151 271.019C657.091 270.472 655.699 270.199 653.975 270.199C651.39 270.199 649.161 270.829 647.289 272.088C645.416 273.331 644.322 274.922 644.007 276.861C643.742 278.485 644.082 279.802 645.026 280.813C645.988 281.824 647.595 282.62 649.849 283.2L655.417 284.616C658.499 285.412 660.695 286.655 662.004 288.345C663.33 290.036 663.786 292.173 663.372 294.759C663.007 296.913 662.087 298.819 660.612 300.476C659.154 302.133 657.281 303.434 654.994 304.379C652.724 305.323 650.189 305.795 647.388 305.795C643.626 305.795 640.668 304.95 638.514 303.26C636.376 301.57 635.232 299.134 635.083 295.952L639.533 294.957C639.665 297.211 640.436 298.918 641.845 300.078C643.27 301.238 645.275 301.818 647.86 301.818C650.81 301.818 653.288 301.147 655.293 299.805C657.298 298.462 658.45 296.805 658.748 294.833C659.03 293.275 658.74 291.983 657.878 290.955C657.033 289.928 655.591 289.165 653.553 288.668L647.612 287.177C644.413 286.365 642.151 285.097 640.825 283.374C639.516 281.634 639.077 279.487 639.508 276.935C639.856 274.831 640.734 272.983 642.143 271.392C643.552 269.801 645.333 268.558 647.487 267.663C649.642 266.752 651.995 266.296 654.547 266.296C658.06 266.296 660.737 267.092 662.576 268.683C664.416 270.257 665.576 272.428 666.056 275.195ZM679.697 281.136L675.745 305H671.32L679.772 254.091H684.196L681.114 272.809H681.512C682.705 270.82 684.346 269.246 686.434 268.086C688.522 266.909 691.016 266.321 693.916 266.321C696.484 266.321 698.655 266.851 700.429 267.912C702.218 268.973 703.486 270.539 704.232 272.61C704.994 274.682 705.127 277.234 704.63 280.266L700.478 305H696.029L700.105 280.54C700.619 277.391 700.155 274.914 698.713 273.107C697.288 271.284 695.101 270.373 692.151 270.373C690.129 270.373 688.24 270.804 686.483 271.665C684.743 272.527 683.268 273.77 682.059 275.394C680.865 277.002 680.078 278.916 679.697 281.136ZM727.145 305.795C723.797 305.795 720.98 304.95 718.693 303.26C716.406 301.553 714.79 299.192 713.846 296.175C712.901 293.159 712.744 289.679 713.373 285.735C714.003 281.89 715.254 278.51 717.127 275.593C719.016 272.66 721.336 270.381 724.087 268.757C726.838 267.116 729.829 266.296 733.061 266.296C736.425 266.296 739.242 267.15 741.513 268.857C743.8 270.563 745.415 272.925 746.36 275.941C747.321 278.957 747.487 282.446 746.857 286.406C746.227 290.234 744.968 293.607 743.079 296.523C741.189 299.424 738.869 301.694 736.118 303.335C733.384 304.975 730.393 305.795 727.145 305.795ZM727.194 301.744C729.912 301.744 732.332 301.023 734.453 299.581C736.591 298.123 738.356 296.184 739.748 293.764C741.14 291.328 742.076 288.652 742.557 285.735C743.004 282.951 742.954 280.391 742.407 278.054C741.861 275.717 740.808 273.845 739.251 272.436C737.693 271.027 735.621 270.323 733.036 270.323C730.335 270.323 727.915 271.061 725.778 272.536C723.64 273.994 721.875 275.949 720.483 278.402C719.091 280.838 718.163 283.506 717.699 286.406C717.235 289.207 717.268 291.767 717.798 294.087C718.345 296.407 719.397 298.263 720.955 299.656C722.529 301.048 724.609 301.744 727.194 301.744ZM760.666 305L755.495 266.818H760.144L763.947 298.313H764.27L778.539 266.818H783.237L786.941 298.239H787.289L801.557 266.818H806.28L788.382 305H783.808L779.931 273.754H779.458L765.24 305H760.666Z" fill="#F4FF75"/>
</g>
<defs>
<filter id="filter0_dd_0_1" x="0" y="0" width="745" height="384" filterUnits="userSpaceOnUse" color-interpolation-filters="sRGB">
<feFlood flood-opacity="0" result="BackgroundImageFix"/>
<feColorMatrix in="SourceAlpha" type="matrix" values="0 0 0 0 0 0 0 0 0 0 0 0 0 0 0 0 0 0 127 0" result="hardAlpha"/>
<feOffset dy="4"/>
<feGaussianBlur stdDeviation="2"/>
<feComposite in2="hardAlpha" operator="out"/>
<feColorMatrix type="matrix" values="0 0 0 0 0 0 0 0 0 0 0 0 0 0 0 0 0 0 0.25 0"/>
<feBlend mode="normal" in2="BackgroundImageFix" result="effect1_dropShadow_0_1"/>
<feColorMatrix in="SourceAlpha" type="matrix" values="0 0 0 0 0 0 0 0 0 0 0 0 0 0 0 0 0 0 127 0" result="hardAlpha"/>
<feOffset dy="4"/>
<feGaussianBlur stdDeviation="2"/>
<feComposite in2="hardAlpha" operator="out"/>
<feColorMatrix type="matrix" values="0 0 0 0 0 0 0 0 0 0 0 0 0 0 0 0 0 0 0.25 0"/>
<feBlend mode="normal" in2="effect1_dropShadow_0_1" result="effect2_dropShadow_0_1"/>
<feBlend mode="normal" in="SourceGraphic" in2="effect2_dropShadow_0_1" result="shape"/>
</filter>
<filter id="filter1_dddd_0_1" x="118.308" y="112.455" width="483.982" height="103.93" filterUnits="userSpaceOnUse" color-interpolation-filters="sRGB">
<feFlood flood-opacity="0" result="BackgroundImageFix"/>
<feColorMatrix in="SourceAlpha" type="matrix" values="0 0 0 0 0 0 0 0 0 0 0 0 0 0 0 0 0 0 127 0" result="hardAlpha"/>
<feOffset dy="4"/>
<feGaussianBlur stdDeviation="2"/>
<feComposite in2="hardAlpha" operator="out"/>
<feColorMatrix type="matrix" values="0 0 0 0 0 0 0 0 0 0 0 0 0 0 0 0 0 0 0.25 0"/>
<feBlend mode="normal" in2="BackgroundImageFix" result="effect1_dropShadow_0_1"/>
<feColorMatrix in="SourceAlpha" type="matrix" values="0 0 0 0 0 0 0 0 0 0 0 0 0 0 0 0 0 0 127 0" result="hardAlpha"/>
<feOffset dy="4"/>
<feGaussianBlur stdDeviation="2"/>
<feComposite in2="hardAlpha" operator="out"/>
<feColorMatrix type="matrix" values="0 0 0 0 0 0 0 0 0 0 0 0 0 0 0 0 0 0 0.25 0"/>
<feBlend mode="normal" in2="effect1_dropShadow_0_1" result="effect2_dropShadow_0_1"/>
<feColorMatrix in="SourceAlpha" type="matrix" values="0 0 0 0 0 0 0 0 0 0 0 0 0 0 0 0 0 0 127 0" result="hardAlpha"/>
<feOffset dy="4"/>
<feGaussianBlur stdDeviation="2"/>
<feComposite in2="hardAlpha" operator="out"/>
<feColorMatrix type="matrix" values="0 0 0 0 0 0 0 0 0 0 0 0 0 0 0 0 0 0 0.25 0"/>
<feBlend mode="normal" in2="effect2_dropShadow_0_1" result="effect3_dropShadow_0_1"/>
<feColorMatrix in="SourceAlpha" type="matrix" values="0 0 0 0 0 0 0 0 0 0 0 0 0 0 0 0 0 0 127 0" result="hardAlpha"/>
<feOffset dy="4"/>
<feGaussianBlur stdDeviation="2"/>
<feComposite in2="hardAlpha" operator="out"/>
<feColorMatrix type="matrix" values="0 0 0 0 0 0 0 0 0 0 0 0 0 0 0 0 0 0 0.25 0"/>
<feBlend mode="normal" in2="effect3_dropShadow_0_1" result="effect4_dropShadow_0_1"/>
<feBlend mode="normal" in="SourceGraphic" in2="effect4_dropShadow_0_1" result="shape"/>
</filter>
<filter id="filter2_dddd_0_1" x="290.66" y="253.817" width="519.62" height="59.978" filterUnits="userSpaceOnUse" color-interpolation-filters="sRGB">
<feFlood flood-opacity="0" result="BackgroundImageFix"/>
<feColorMatrix in="SourceAlpha" type="matrix" values="0 0 0 0 0 0 0 0 0 0 0 0 0 0 0 0 0 0 127 0" result="hardAlpha"/>
<feOffset dy="4"/>
<feGaussianBlur stdDeviation="2"/>
<feComposite in2="hardAlpha" operator="out"/>
<feColorMatrix type="matrix" values="0 0 0 0 0 0 0 0 0 0 0 0 0 0 0 0 0 0 0.25 0"/>
<feBlend mode="normal" in2="BackgroundImageFix" result="effect1_dropShadow_0_1"/>
<feColorMatrix in="SourceAlpha" type="matrix" values="0 0 0 0 0 0 0 0 0 0 0 0 0 0 0 0 0 0 127 0" result="hardAlpha"/>
<feOffset dy="4"/>
<feGaussianBlur stdDeviation="2"/>
<feComposite in2="hardAlpha" operator="out"/>
<feColorMatrix type="matrix" values="0 0 0 0 0 0 0 0 0 0 0 0 0 0 0 0 0 0 0.25 0"/>
<feBlend mode="normal" in2="effect1_dropShadow_0_1" result="effect2_dropShadow_0_1"/>
<feColorMatrix in="SourceAlpha" type="matrix" values="0 0 0 0 0 0 0 0 0 0 0 0 0 0 0 0 0 0 127 0" result="hardAlpha"/>
<feOffset dy="4"/>
<feGaussianBlur stdDeviation="2"/>
<feComposite in2="hardAlpha" operator="out"/>
<feColorMatrix type="matrix" values="0 0 0 0 0 0 0 0 0 0 0 0 0 0 0 0 0 0 0.25 0"/>
<feBlend mode="normal" in2="effect2_dropShadow_0_1" result="effect3_dropShadow_0_1"/>
<feColorMatrix in="SourceAlpha" type="matrix" values="0 0 0 0 0 0 0 0 0 0 0 0 0 0 0 0 0 0 127 0" result="hardAlpha"/>
<feOffset dy="4"/>
<feGaussianBlur stdDeviation="2"/>
<feComposite in2="hardAlpha" operator="out"/>
<feColorMatrix type="matrix" values="0 0 0 0 0 0 0 0 0 0 0 0 0 0 0 0 0 0 0.25 0"/>
<feBlend mode="normal" in2="effect3_dropShadow_0_1" result="effect4_dropShadow_0_1"/>
<feBlend mode="normal" in="SourceGraphic" in2="effect4_dropShadow_0_1" result="shape"/>
</filter>
<linearGradient id="paint0_linear_0_1" x1="373" y1="-14" x2="373" y2="394" gradientUnits="userSpaceOnUse">
<stop stop-color="#FF0808"/>
<stop offset="0.364583" stop-color="#F6E659"/>
<stop offset="0.979167" stop-color="#F0FF3F" stop-opacity="0"/>
</linearGradient>
<linearGradient id="paint1_linear_0_1" x1="396.5" y1="81" x2="396.899" y2="236.999" gradientUnits="userSpaceOnUse">
<stop stop-color="#FF0808"/>
<stop offset="0.7125" stop-color="#F4FF75"/>
<stop offset="0.983333" stop-color="#FFF27E" stop-opacity="0"/>
</linearGradient>
</defs>
</svg>
